<svg width="19" height="19" viewBox="0 0 19 19" fill="none" xmlns="http://www.w3.org/2000/svg">
<path d="M16.9001 5.70977L11.5671 1.56177C11.099 1.19768 10.523 1 9.93005 1C9.3371 1 8.76106 1.19768 8.29305 1.56177L2.95905 5.70977C2.6385 5.95905 2.37915 6.2783 2.20081 6.64312C2.02247 7.00794 1.92986 7.40869 1.93005 7.81477V15.0148C1.93005 15.5452 2.14077 16.0539 2.51584 16.429C2.89091 16.8041 3.39962 17.0148 3.93005 17.0148H15.9301C16.4605 17.0148 16.9692 16.8041 17.3443 16.429C17.7193 16.0539 17.9301 15.5452 17.9301 15.0148V7.81477C17.9301 6.99177 17.5501 6.21477 16.9001 5.70977Z" fill="#4038FF" stroke="#4038FF" stroke-width="2" stroke-linecap="round" stroke-linejoin="round"/>
<path d="M13.9 12C11.69 13.333 8.10802 13.333 5.90002 12" stroke="white" stroke-width="2" stroke-linecap="round" stroke-linejoin="round"/>
</svg>
