<svg width="18" height="18" viewBox="0 0 18 18" fill="none" xmlns="http://www.w3.org/2000/svg">
<path d="M15.9001 5.70977L10.5671 1.56177C10.099 1.19768 9.52301 1 8.93005 1C8.3371 1 7.76106 1.19768 7.29305 1.56177L1.95905 5.70977C1.6385 5.95905 1.37915 6.2783 1.20081 6.64312C1.02247 7.00794 0.929862 7.40869 0.930054 7.81477V15.0148C0.930054 15.5452 1.14077 16.0539 1.51584 16.429C1.89091 16.8041 2.39962 17.0148 2.93005 17.0148H14.9301C15.4605 17.0148 15.9692 16.8041 16.3443 16.429C16.7193 16.0539 16.9301 15.5452 16.9301 15.0148V7.81477C16.9301 6.99177 16.5501 6.21477 15.9001 5.70977Z" stroke="#94A3B8" stroke-width="1.5" stroke-linecap="round" stroke-linejoin="round"/>
<path d="M12.9 12C10.69 13.333 7.10802 13.333 4.90002 12" stroke="#94A3B8" stroke-width="1.5" stroke-linecap="round" stroke-linejoin="round"/>
</svg>
